<?xml version="1.0" encoding="iso-8859-1"?>
<!-- Generator: Adobe Illustrator 19.0.0, SVG Export Plug-In . SVG Version: 6.00 Build 0)  -->
<svg version="1.1" id="Layer_1" xmlns="http://www.w3.org/2000/svg" xmlns:xlink="http://www.w3.org/1999/xlink" x="0px" y="0px"
	 viewBox="0 0 512 512" style="enable-background:new 0 0 512 512;" xml:space="preserve">
<g>
	<g>
		<path d="M506.267,492.944l-33.391-233.739c-0.621-4.344-3.035-8.481-6.746-11.168c-0.002-0.001-0.004-0.003-0.007-0.006
			L272.696,108.334v-8.16h83.478c9.22,0,16.696-7.475,16.696-16.696V16.696C372.87,7.475,365.394,0,356.174,0H256
			c-9.22,0-16.696,7.475-16.696,16.696c0,11.133,0,84.453,0,91.638L45.877,248.031c-0.002,0.001-0.004,0.003-0.007,0.006
			c-3.672,2.659-6.118,6.773-6.746,11.168L5.733,492.944C4.295,503.005,12.117,512,22.261,512c20.509,0,449.158,0,467.478,0
			C499.903,512,507.703,502.985,506.267,492.944z M272.696,33.391h66.783v33.391h-66.783V33.391z M404.715,244.87h-39.794
			l-39.794-57.48L404.715,244.87z M272.696,170.317l51.614,74.553h-51.614V170.317z M239.304,170.317v74.553h-51.613
			L239.304,170.317z M186.872,187.39l-39.794,57.48h-39.794L186.872,187.39z M107.955,478.609H41.512l28.62-200.348h66.444
			L107.955,478.609z M149.756,478.609h-8.071l28.621-200.348h66.781C224.442,379.427,183.217,449.23,149.756,478.609z
			 M195.417,478.609c27.336-34.401,47.817-80.331,60.583-124.696c12.764,44.366,33.247,90.296,60.583,124.696H195.417z
			 M362.244,478.609c-33.461-29.378-74.686-99.181-87.333-200.348h66.781l28.621,200.348H362.244z M404.045,478.609l-28.621-200.348
			h66.444l28.621,200.348H404.045z"/>
	</g>
</g>
<g>
</g>
<g>
</g>
<g>
</g>
<g>
</g>
<g>
</g>
<g>
</g>
<g>
</g>
<g>
</g>
<g>
</g>
<g>
</g>
<g>
</g>
<g>
</g>
<g>
</g>
<g>
</g>
<g>
</g>
</svg>
