<?xml version="1.0" encoding="iso-8859-1"?>

<!DOCTYPE svg PUBLIC "-//W3C//DTD SVG 1.1//EN" "http://www.w3.org/Graphics/SVG/1.1/DTD/svg11.dtd">
<svg version="1.1" id="Layer_1" xmlns="http://www.w3.org/2000/svg" xmlns:xlink="http://www.w3.org/1999/xlink" x="0px" y="0px"
	 width="55.203px" height="53.747px" viewBox="0 0 55.203 53.747" style="enable-background:new 0 0 55.203 53.747;"
	 xml:space="preserve">
<path d="M53.666,20.361c1.014,0,1.537-0.276,1.537-0.711c0-0.206-0.117-0.447-0.354-0.707c-0.146-0.154-0.332-0.318-0.561-0.487
	L30.197,0.785c-1.428-1.046-3.765-1.046-5.196,0L0.913,18.457C0.296,18.908,0,19.32,0,19.65c0,0.136,0.05,0.255,0.152,0.358
	c0.225,0.222,0.689,0.353,1.384,0.353h4.897v21.144H5.68c-1.235,0-2.238,1.004-2.238,2.238v2.562H2.458
	c-1.235,0-2.237,1.002-2.237,2.233v2.971c0,1.236,1.002,2.238,2.237,2.238h50.071c1.236,0,2.238-1.002,2.238-2.238v-2.971
	c0-1.231-1.002-2.233-2.238-2.233h-0.984v-2.562c0-1.234-1.002-2.238-2.236-2.238h-0.754V20.361H53.666z M18.272,41.504h-5.228
	V20.361h5.228V41.504z M30.105,41.504h-5.227V20.361h5.227V41.504z M27.601,13.337c-1.545,0-2.793-1.248-2.793-2.792
	c0-1.542,1.248-2.79,2.793-2.79c1.543,0,2.793,1.248,2.793,2.79C30.395,12.09,29.145,13.337,27.601,13.337z M41.947,41.504h-5.232
	V20.361h5.232V41.504z"/>
</svg>
