<?xml version="1.0" encoding="UTF-8"?> <svg xmlns="http://www.w3.org/2000/svg" width="392" height="229" viewBox="0 0 392 229" fill="none"> <path d="M52.5082 37.1289H0V89.6371H52.5082V37.1289Z" fill="#F62E46"></path> <path d="M89.6388 0.000355559L52.5103 37.1289L89.6388 74.2575L126.767 37.1289L89.6388 0.000355559Z" fill="#F62E46"></path> <path d="M179.279 37.1289H126.771V89.6371H179.279V37.1289Z" fill="#F62E46"></path> <path d="M11.8777 138.533L26.4702 156.446L41.0628 138.533H41.7415V171.318H52.2617V124H40.7234L26.4702 141.575L12.217 124H0.678724V171.318H11.1989V138.533H11.8777Z" fill="#252A31"></path> <path d="M76.3484 172.67C78.7919 172.67 81.0995 172.196 83.3393 171.25C85.5112 170.304 87.4117 169.019 89.0406 167.397C90.6695 165.842 91.9591 163.95 92.9093 161.854C93.8595 159.759 94.3346 157.46 94.3346 155.094C94.3346 152.729 93.8595 150.498 92.9093 148.335C91.9591 146.239 90.6695 144.347 89.0406 142.724C87.4117 141.17 85.5112 139.885 83.3393 138.939C81.0995 137.992 78.7919 137.519 76.3484 137.519C73.905 137.519 71.5974 137.992 69.4255 138.939C67.1857 139.885 65.2853 141.17 63.6563 142.724C62.0274 144.347 60.7378 146.239 59.7876 148.335C58.8374 150.498 58.3623 152.729 58.3623 155.094C58.3623 157.46 58.8374 159.759 59.7876 161.854C60.7378 163.95 62.0274 165.842 63.6563 167.397C65.2853 169.019 67.1857 170.304 69.4255 171.25C71.5974 172.196 73.905 172.67 76.3484 172.67ZM76.3484 164.22C75.2625 164.22 74.1765 163.95 73.1585 163.476C72.1404 163.071 71.1901 162.395 70.4436 161.516C69.697 160.705 69.0861 159.759 68.611 158.609C68.1359 157.528 67.8644 156.379 67.8644 155.094C67.8644 153.81 68.1359 152.661 68.611 151.512C69.0861 150.43 69.697 149.484 70.4436 148.605C71.1901 147.794 72.1404 147.118 73.1585 146.645C74.1765 146.172 75.2625 145.969 76.3484 145.969C77.4344 145.969 78.5204 146.172 79.5385 146.645C80.5565 147.118 81.5068 147.794 82.2533 148.605C82.9999 149.484 83.6787 150.43 84.1538 151.512C84.6289 152.661 84.8325 153.81 84.8325 155.094C84.8325 156.379 84.6289 157.528 84.1538 158.609C83.6787 159.759 82.9999 160.705 82.2533 161.516C81.5068 162.395 80.5565 163.003 79.5385 163.476C78.5204 163.95 77.4344 164.22 76.3484 164.22Z" fill="#252A31"></path> <path d="M115.704 172.67C118.079 172.67 120.183 172.332 122.152 171.656C124.052 170.98 125.681 170.101 127.106 168.952C128.464 167.87 129.618 166.586 130.5 165.099C131.382 163.679 131.993 162.124 132.333 160.502L122.83 159.15C122.355 160.502 121.473 161.651 120.319 162.665C119.165 163.679 117.604 164.22 115.704 164.22C114.686 164.22 113.668 164.017 112.785 163.544C111.835 163.071 111.021 162.462 110.274 161.651C109.527 160.908 108.984 159.961 108.577 158.812C108.102 157.663 107.898 156.446 107.898 155.094C107.898 153.742 108.102 152.526 108.577 151.377C108.984 150.227 109.527 149.281 110.274 148.47C111.021 147.726 111.835 147.118 112.785 146.645C113.668 146.172 114.686 145.969 115.704 145.969C117.401 145.969 118.826 146.374 119.844 147.186C120.862 148.064 121.677 149.011 122.152 150.025L131.654 148.673C131.314 147.321 130.704 145.969 129.821 144.617C128.939 143.333 127.853 142.116 126.496 141.034C125.138 140.02 123.577 139.142 121.744 138.466C119.912 137.857 117.944 137.519 115.704 137.519C113.396 137.519 111.224 137.992 109.12 138.939C107.016 139.885 105.184 141.17 103.623 142.724C102.061 144.347 100.772 146.239 99.8217 148.335C98.8715 150.498 98.3964 152.729 98.3964 155.094C98.3964 157.46 98.8715 159.759 99.8217 161.854C100.772 163.95 102.061 165.842 103.623 167.397C105.184 169.019 107.016 170.304 109.12 171.25C111.224 172.196 113.396 172.67 115.704 172.67Z" fill="#252A31"></path> <path d="M160.826 155.094V154.418C161.437 154.283 162.047 154.013 162.522 153.675C162.93 153.337 163.337 152.931 163.676 152.391C164.016 151.917 164.219 151.241 164.219 150.363V149.011C164.219 148.335 164.423 147.794 164.898 147.321C165.373 146.848 165.916 146.645 166.595 146.645H167.952V138.195H165.916C162.047 138.195 159.265 138.871 157.568 140.291C155.871 141.71 155.057 143.603 155.057 145.969V147.997C155.057 149.822 154.174 150.701 152.342 150.701H146.572V138.871H137.07V171.318H146.572V159.15H153.02C154.853 159.15 155.735 160.029 155.735 161.854V164.22C155.735 166.586 156.55 168.479 158.247 169.898C159.943 171.318 162.726 171.994 166.595 171.994H168.631V163.544H167.274C166.595 163.544 166.052 163.341 165.577 162.868C165.102 162.395 164.898 161.854 164.898 161.178V159.488C164.898 158.609 164.694 157.933 164.287 157.393C163.812 156.852 163.337 156.379 162.862 156.041C162.251 155.635 161.572 155.297 160.826 155.094Z" fill="#252A31"></path> <path d="M189.359 172.67C191.802 172.67 194.11 172.196 196.349 171.25C198.521 170.304 200.422 169.019 202.051 167.397C203.68 165.842 204.969 163.95 205.919 161.854C206.87 159.759 207.345 157.46 207.345 155.094C207.345 152.729 206.87 150.498 205.919 148.335C204.969 146.239 203.68 144.347 202.051 142.724C200.422 141.17 198.521 139.885 196.349 138.939C194.11 137.992 191.802 137.519 189.359 137.519C186.915 137.519 184.607 137.992 182.436 138.939C180.196 139.885 178.295 141.17 176.666 142.724C175.038 144.347 173.748 146.239 172.798 148.335C171.848 150.498 171.372 152.729 171.372 155.094C171.372 157.46 171.848 159.759 172.798 161.854C173.748 163.95 175.038 165.842 176.666 167.397C178.295 169.019 180.196 170.304 182.436 171.25C184.607 172.196 186.915 172.67 189.359 172.67ZM189.359 164.22C188.273 164.22 187.187 163.95 186.169 163.476C185.15 163.071 184.2 162.395 183.454 161.516C182.707 160.705 182.096 159.759 181.621 158.609C181.146 157.528 180.875 156.379 180.875 155.094C180.875 153.81 181.146 152.661 181.621 151.512C182.096 150.43 182.707 149.484 183.454 148.605C184.2 147.794 185.15 147.118 186.169 146.645C187.187 146.172 188.273 145.969 189.359 145.969C190.445 145.969 191.53 146.172 192.549 146.645C193.567 147.118 194.517 147.794 195.263 148.605C196.01 149.484 196.689 150.43 197.164 151.512C197.639 152.661 197.843 153.81 197.843 155.094C197.843 156.379 197.639 157.528 197.164 158.609C196.689 159.759 196.01 160.705 195.263 161.516C194.517 162.395 193.567 163.003 192.549 163.476C191.53 163.95 190.445 164.22 189.359 164.22Z" fill="#252A31"></path> <path d="M222.266 146.307H228.375C229.053 146.307 229.596 146.51 230.071 146.983C230.546 147.456 230.75 147.997 230.75 148.673C230.75 149.349 230.546 149.889 230.071 150.363C229.596 150.836 229.053 151.039 228.375 151.039H222.266V146.307ZM230.75 163.882H222.266V157.798H230.75C231.632 157.798 232.311 158.069 232.922 158.677C233.533 159.285 233.804 159.961 233.804 160.84C233.804 161.719 233.533 162.395 232.922 163.003C232.311 163.612 231.632 163.882 230.75 163.882ZM228.375 138.871H212.764V171.318H230.411C232.515 171.318 234.415 171.047 236.112 170.506C237.741 169.966 239.098 169.29 240.252 168.411C241.338 167.532 242.153 166.586 242.764 165.437C243.374 164.355 243.646 163.274 243.646 162.192C243.646 160.435 243.239 159.015 242.492 157.866C241.678 156.784 240.795 155.906 239.913 155.297C238.759 154.554 237.537 154.08 236.18 153.742V153.067C236.994 152.729 237.741 152.323 238.352 151.85C238.895 151.377 239.438 150.836 239.913 150.092C240.388 149.349 240.592 148.47 240.592 147.321C240.592 146.307 240.32 145.293 239.777 144.279C239.234 143.265 238.42 142.386 237.402 141.575C236.384 140.764 235.094 140.088 233.601 139.615C232.04 139.142 230.343 138.871 228.375 138.871Z" fill="#252A31"></path> <path d="M264.373 172.67C266.749 172.67 268.853 172.332 270.821 171.656C272.722 170.98 274.351 170.101 275.776 168.952C277.133 167.87 278.287 166.586 279.17 165.099C280.052 163.679 280.663 162.124 281.002 160.502L271.5 159.15C271.025 160.502 270.143 161.651 268.989 162.665C267.835 163.679 266.274 164.22 264.373 164.22C263.355 164.22 262.337 164.017 261.455 163.544C260.505 163.071 259.69 162.462 258.944 161.651C258.197 160.908 257.654 159.961 257.247 158.812C256.772 157.663 256.568 156.446 256.568 155.094C256.568 153.742 256.772 152.526 257.247 151.377C257.654 150.227 258.197 149.281 258.944 148.47C259.69 147.726 260.505 147.118 261.455 146.645C262.337 146.172 263.355 145.969 264.373 145.969C266.07 145.969 267.496 146.374 268.514 147.186C269.532 148.064 270.346 149.011 270.821 150.025L280.323 148.673C279.984 147.321 279.373 145.969 278.491 144.617C277.609 143.333 276.523 142.116 275.165 141.034C273.808 140.02 272.247 139.142 270.414 138.466C268.582 137.857 266.613 137.519 264.373 137.519C262.066 137.519 259.894 137.992 257.79 138.939C255.686 139.885 253.853 141.17 252.292 142.724C250.731 144.347 249.442 146.239 248.491 148.335C247.541 150.498 247.066 152.729 247.066 155.094C247.066 157.46 247.541 159.759 248.491 161.854C249.442 163.95 250.731 165.842 252.292 167.397C253.853 169.019 255.686 170.304 257.79 171.25C259.894 172.196 262.066 172.67 264.373 172.67Z" fill="#252A31"></path> <path d="M309.495 155.094V154.418C310.106 154.283 310.717 154.013 311.192 153.675C311.599 153.337 312.007 152.931 312.346 152.391C312.685 151.917 312.889 151.241 312.889 150.363V149.011C312.889 148.335 313.093 147.794 313.568 147.321C314.043 146.848 314.586 146.645 315.264 146.645H316.622V138.195H314.586C310.717 138.195 307.934 138.871 306.237 140.291C304.541 141.71 303.726 143.603 303.726 145.969V147.997C303.726 149.822 302.844 150.701 301.011 150.701H295.242V138.871H285.74V171.318H295.242V159.15H301.69C303.523 159.15 304.405 160.029 304.405 161.854V164.22C304.405 166.586 305.219 168.479 306.916 169.898C308.613 171.318 311.396 171.994 315.264 171.994H317.301V163.544H315.943C315.264 163.544 314.721 163.341 314.246 162.868C313.771 162.395 313.568 161.854 313.568 161.178V159.488C313.568 158.609 313.364 157.933 312.957 157.393C312.482 156.852 312.007 156.379 311.531 156.041C310.921 155.635 310.242 155.297 309.495 155.094Z" fill="#252A31"></path> <path d="M322.062 138.871V171.318H331.564L343.442 154.08H344.121V171.318H353.623V138.871H344.121L332.243 156.108H331.564V138.871H322.062Z" fill="#252A31"></path> <path d="M376.321 133.802C377.679 133.802 378.969 133.531 380.122 133.058C381.276 132.585 382.226 131.976 383.109 131.098C383.991 130.219 384.67 129.205 385.145 128.056C385.62 126.907 385.824 125.69 385.824 124.338H379.715C379.715 125.352 379.444 126.163 378.833 126.771C378.222 127.38 377.34 127.718 376.321 127.718C375.303 127.718 374.489 127.38 373.878 126.771C373.267 126.163 372.928 125.352 372.928 124.338H366.819C366.819 125.69 367.091 126.907 367.566 128.056C368.041 129.205 368.652 130.219 369.534 131.098C370.417 131.976 371.435 132.585 372.589 133.058C373.742 133.531 374.964 133.802 376.321 133.802ZM360.439 138.871V171.318H369.941L381.819 154.08H382.498V171.318H392V138.871H382.498L370.62 156.108H369.941V138.871H360.439Z" fill="#252A31"></path> <path d="M0 195.202V227.648H9.50213V203.651H21.3798V227.648H30.8819V195.202H0Z" fill="#252A31"></path> <path d="M54.2767 229C56.7201 229 59.0277 228.527 61.2675 227.58C63.4394 226.634 65.3399 225.35 66.9688 223.727C68.5977 222.173 69.8873 220.28 70.8375 218.185C71.7877 216.089 72.2629 213.791 72.2629 211.425C72.2629 209.059 71.7877 206.828 70.8375 204.665C69.8873 202.57 68.5977 200.677 66.9688 199.055C65.3399 197.5 63.4394 196.216 61.2675 195.269C59.0277 194.323 56.7201 193.85 54.2767 193.85C51.8333 193.85 49.5256 194.323 47.3537 195.269C45.1139 196.216 43.2135 197.5 41.5845 199.055C39.9556 200.677 38.666 202.57 37.7158 204.665C36.7656 206.828 36.2905 209.059 36.2905 211.425C36.2905 213.791 36.7656 216.089 37.7158 218.185C38.666 220.28 39.9556 222.173 41.5845 223.727C43.2135 225.35 45.1139 226.634 47.3537 227.58C49.5256 228.527 51.8333 229 54.2767 229ZM54.2767 220.55C53.1907 220.55 52.1048 220.28 51.0867 219.807C50.0686 219.401 49.1184 218.725 48.3718 217.847C47.6252 217.035 47.0143 216.089 46.5392 214.94C46.0641 213.858 45.7926 212.709 45.7926 211.425C45.7926 210.141 46.0641 208.991 46.5392 207.842C47.0143 206.761 47.6252 205.814 48.3718 204.936C49.1184 204.124 50.0686 203.448 51.0867 202.975C52.1048 202.502 53.1907 202.299 54.2767 202.299C55.3626 202.299 56.4486 202.502 57.4667 202.975C58.4848 203.448 59.435 204.124 60.1816 204.936C60.9282 205.814 61.6069 206.761 62.082 207.842C62.5571 208.991 62.7607 210.141 62.7607 211.425C62.7607 212.709 62.5571 213.858 62.082 214.94C61.6069 216.089 60.9282 217.035 60.1816 217.847C59.435 218.725 58.4848 219.334 57.4667 219.807C56.4486 220.28 55.3626 220.55 54.2767 220.55Z" fill="#252A31"></path> <path d="M93.632 229C96.0076 229 98.1116 228.662 100.08 227.986C101.98 227.31 103.609 226.431 105.035 225.282C106.392 224.201 107.546 222.916 108.428 221.429C109.311 220.01 109.921 218.455 110.261 216.833L100.759 215.481C100.284 216.833 99.4012 217.982 98.2474 218.996C97.0935 220.01 95.5325 220.55 93.632 220.55C92.614 220.55 91.5959 220.348 90.7135 219.874C89.7633 219.401 88.9489 218.793 88.2023 217.982C87.4557 217.238 86.9127 216.292 86.5054 215.143C86.0303 213.994 85.8267 212.777 85.8267 211.425C85.8267 210.073 86.0303 208.856 86.5054 207.707C86.9127 206.558 87.4557 205.612 88.2023 204.8C88.9489 204.057 89.7633 203.448 90.7135 202.975C91.5959 202.502 92.614 202.299 93.632 202.299C95.3288 202.299 96.7542 202.705 97.7723 203.516C98.7903 204.395 99.6048 205.341 100.08 206.355L109.582 205.003C109.243 203.651 108.632 202.299 107.749 200.947C106.867 199.663 105.781 198.446 104.424 197.365C103.066 196.351 101.505 195.472 99.6727 194.796C97.8401 194.188 95.8718 193.85 93.632 193.85C91.3244 193.85 89.1525 194.323 87.0484 195.269C84.9444 196.216 83.1118 197.5 81.5508 199.055C79.9897 200.677 78.7001 202.57 77.7499 204.665C76.7997 206.828 76.3246 209.059 76.3246 211.425C76.3246 213.791 76.7997 216.089 77.7499 218.185C78.7001 220.28 79.9897 222.173 81.5508 223.727C83.1118 225.35 84.9444 226.634 87.0484 227.58C89.1525 228.527 91.3244 229 93.632 229Z" fill="#252A31"></path> <path d="M111.621 195.202V203.651H121.802V227.648H131.304V203.651H141.485V195.202H111.621Z" fill="#252A31"></path> <path d="M168.97 208.045V214.805C168.427 215.954 167.749 216.9 167.002 217.711C166.391 218.455 165.577 219.063 164.694 219.672C163.744 220.28 162.658 220.55 161.504 220.55C159.265 220.55 157.432 219.739 155.939 218.117C154.446 216.562 153.699 214.332 153.699 211.425C153.699 208.518 154.446 206.288 155.939 204.665C157.432 203.111 159.265 202.299 161.504 202.299C162.658 202.299 163.744 202.57 164.694 203.178C165.577 203.786 166.391 204.462 167.002 205.206C167.749 206.017 168.427 206.964 168.97 208.045ZM144.197 211.425C144.197 213.926 144.604 216.292 145.487 218.455C146.369 220.618 147.523 222.443 148.948 223.998C150.373 225.553 152.002 226.769 153.835 227.716C155.667 228.594 157.5 229 159.468 229C161.029 229 162.387 228.797 163.541 228.324C164.694 227.851 165.577 227.242 166.323 226.634C167.138 225.958 167.817 225.147 168.292 224.268H168.97V227.648H178.472V195.202H168.97V198.582H168.292C167.817 197.703 167.138 196.959 166.323 196.216C165.577 195.607 164.694 195.067 163.541 194.593C162.387 194.12 161.029 193.85 159.468 193.85C157.5 193.85 155.667 194.255 153.835 195.134C152.002 196.013 150.373 197.23 148.948 198.784C147.523 200.339 146.369 202.232 145.487 204.395C144.604 206.558 144.197 208.924 144.197 211.425Z" fill="#252A31"></path> <path d="M195.438 207.369L204.261 218.185L213.085 207.369H213.763V227.648H223.266V195.202H213.085L204.261 206.017L195.438 195.202H185.257V227.648H194.759V207.369H195.438Z" fill="#252A31"></path> <path d="M253.479 208.045V214.805C252.936 215.954 252.258 216.9 251.511 217.711C250.9 218.455 250.086 219.063 249.203 219.672C248.253 220.28 247.167 220.55 246.013 220.55C243.774 220.55 241.941 219.739 240.448 218.117C238.955 216.562 238.208 214.332 238.208 211.425C238.208 208.518 238.955 206.288 240.448 204.665C241.941 203.111 243.774 202.299 246.013 202.299C247.167 202.299 248.253 202.57 249.203 203.178C250.086 203.786 250.9 204.462 251.511 205.206C252.258 206.017 252.936 206.964 253.479 208.045ZM228.706 211.425C228.706 213.926 229.113 216.292 229.996 218.455C230.878 220.618 232.032 222.443 233.457 223.998C234.882 225.553 236.511 226.769 238.344 227.716C240.176 228.594 242.009 229 243.977 229C245.538 229 246.896 228.797 248.05 228.324C249.203 227.851 250.086 227.242 250.832 226.634C251.647 225.958 252.326 225.147 252.801 224.268H253.479V227.648H262.982V195.202H253.479V198.582H252.801C252.326 197.703 251.647 196.959 250.832 196.216C250.086 195.607 249.203 195.067 248.05 194.593C246.896 194.12 245.538 193.85 243.977 193.85C242.009 193.85 240.176 194.255 238.344 195.134C236.511 196.013 234.882 197.23 233.457 198.784C232.032 200.339 230.878 202.232 229.996 204.395C229.113 206.558 228.706 208.924 228.706 211.425Z" fill="#252A31"></path> <path d="M267.051 195.202V203.651H277.232V227.648H286.734V203.651H296.915V195.202H267.051Z" fill="#252A31"></path> </svg> 