<?xml version="1.0" encoding="iso-8859-1"?>
<!-- Generator: Adobe Illustrator 19.0.0, SVG Export Plug-In . SVG Version: 6.00 Build 0)  -->
<svg version="1.1" id="Layer_1" xmlns="http://www.w3.org/2000/svg" xmlns:xlink="http://www.w3.org/1999/xlink" x="0px" y="0px"
	 viewBox="0 0 512 512" style="enable-background:new 0 0 512 512;" xml:space="preserve">
<g>
	<g>
		<path d="M30.183,151.899C13.54,151.899,0,165.439,0,182.082v147.835c0,16.643,13.54,30.183,30.183,30.183h20.253V151.899H30.183z"
			/>
	</g>
</g>
<g>
	<g>
		<path d="M417.164,120.41h-65.84c-16.643,0-30.183,13.54-30.183,30.183v87.293H190.858v-87.293
			c0-16.643-13.54-30.183-30.182-30.183h-65.84c-16.643,0-30.183,13.54-30.183,30.183v210.814c0,16.643,13.54,30.183,30.183,30.183
			h65.84c16.643,0,30.182-13.54,30.182-30.183v-87.301h130.283v87.301c0,16.643,13.54,30.183,30.183,30.183h65.84
			c16.643,0,30.183-13.54,30.183-30.183V150.593C447.347,133.95,433.808,120.41,417.164,120.41z"/>
	</g>
</g>
<g>
	<g>
		<path d="M481.817,151.899h-20.253v208.202h20.253c16.643,0,30.183-13.54,30.183-30.183V182.082
			C512,165.439,498.46,151.899,481.817,151.899z"/>
	</g>
</g>
<g>
</g>
<g>
</g>
<g>
</g>
<g>
</g>
<g>
</g>
<g>
</g>
<g>
</g>
<g>
</g>
<g>
</g>
<g>
</g>
<g>
</g>
<g>
</g>
<g>
</g>
<g>
</g>
<g>
</g>
</svg>
